<svg width="24" height="20" viewBox="0 0 24 20" fill="none" xmlns="http://www.w3.org/2000/svg">
<path d="M7.47097 19.6645C16.6065 19.6645 21.5613 12.1161 21.5613 5.57419C21.5613 5.41936 21.5613 5.14839 21.5226 4.91613C22.4903 4.21936 23.3419 3.32903 24 2.36129C23.071 2.7871 22.1419 3.01935 21.1742 3.13548C22.2194 2.51613 22.9935 1.54839 23.3419 0.387097C22.3742 0.929032 21.3677 1.35484 20.1677 1.5871C19.2387 0.619355 18 0 16.5677 0C13.8194 0 11.5742 2.24516 11.5742 4.99355C11.5742 5.38065 11.6129 5.76774 11.6903 6.15484C7.70323 5.88387 4.06452 3.90968 1.5871 0.929032C1.16129 1.70323 0.929032 2.51613 0.929032 3.40645C0.929032 5.14839 1.81935 6.61935 3.17419 7.50968C2.36129 7.47097 1.5871 7.23871 0.929032 6.89032C0.929032 6.92903 0.929032 6.92903 0.929032 6.92903C0.929032 9.29032 2.63226 11.3419 4.87742 11.8065C4.45161 11.9226 3.9871 11.9613 3.63871 11.9613C3.32903 11.9613 2.98065 11.9226 2.70968 11.8452C3.36774 13.8194 5.1871 15.2516 7.35484 15.2903C5.65161 16.6065 3.52258 17.4194 1.23871 17.4194C0.774194 17.4968 0.387097 17.4194 0 17.3806C2.09032 18.8516 4.68387 19.6645 7.47097 19.6645Z" fill="white"/>
</svg>
